<svg width="70" height="68" viewBox="0 0 70 68" fill="none" xmlns="http://www.w3.org/2000/svg">
<path fill-rule="evenodd" clip-rule="evenodd" d="M35 0.25C15.9387 0.25 0.5 15.6887 0.5 34.75C0.5 50.0162 10.3756 62.9106 24.0894 67.4819C25.8144 67.7837 26.4613 66.7487 26.4613 65.8431C26.4613 65.0237 26.4181 62.3069 26.4181 59.4175C17.75 61.0131 15.5075 57.3044 14.8175 55.3637C14.4294 54.3719 12.7475 51.31 11.2812 50.4906C10.0737 49.8437 8.34875 48.2481 11.2381 48.205C13.955 48.1619 15.8956 50.7062 16.5425 51.7412C19.6475 56.9594 24.6069 55.4931 26.5906 54.5875C26.8925 52.345 27.7981 50.8356 28.79 49.9731C21.1138 49.1106 13.0925 46.135 13.0925 32.9387C13.0925 29.1869 14.4294 26.0819 16.6287 23.6669C16.2837 22.8044 15.0763 19.2681 16.9738 14.5244C16.9738 14.5244 19.8631 13.6188 26.4613 18.0606C29.2213 17.2844 32.1538 16.8962 35.0863 16.8962C38.0188 16.8962 40.9513 17.2844 43.7113 18.0606C50.3094 13.5756 53.1987 14.5244 53.1987 14.5244C55.0962 19.2681 53.8887 22.8044 53.5437 23.6669C55.7431 26.0819 57.08 29.1437 57.08 32.9387C57.08 46.1781 49.0156 49.1106 41.3394 49.9731C42.59 51.0512 43.6681 53.1212 43.6681 56.3556C43.6681 60.97 43.625 64.6787 43.625 65.8431C43.625 66.7487 44.2719 67.8269 45.9969 67.4819C59.6244 62.9106 69.5 49.9731 69.5 34.75C69.5 15.6887 54.0613 0.25 35 0.25V0.25Z" fill="white"/>
</svg>
