<svg width="65" height="65" viewBox="0 0 65 65" fill="none" xmlns="http://www.w3.org/2000/svg">
<path d="M57.2917 0.625C59.1703 0.625 60.972 1.37128 62.3003 2.69966C63.6287 4.02804 64.375 5.82972 64.375 7.70833V57.2917C64.375 59.1703 63.6287 60.972 62.3003 62.3003C60.972 63.6287 59.1703 64.375 57.2917 64.375H7.70833C5.82972 64.375 4.02804 63.6287 2.69966 62.3003C1.37128 60.972 0.625 59.1703 0.625 57.2917V7.70833C0.625 5.82972 1.37128 4.02804 2.69966 2.69966C4.02804 1.37128 5.82972 0.625 7.70833 0.625H57.2917ZM55.5208 55.5208V36.75C55.5208 33.6879 54.3044 30.7511 52.1391 28.5859C49.9739 26.4206 47.0371 25.2042 43.975 25.2042C40.9646 25.2042 37.4583 27.0458 35.7583 29.8083V25.8771H25.8771V55.5208H35.7583V38.0604C35.7583 35.3333 37.9542 33.1021 40.6813 33.1021C41.9963 33.1021 43.2575 33.6245 44.1873 34.5543C45.1172 35.4842 45.6396 36.7454 45.6396 38.0604V55.5208H55.5208ZM14.3667 20.3167C15.9447 20.3167 17.4581 19.6898 18.574 18.574C19.6898 17.4581 20.3167 15.9447 20.3167 14.3667C20.3167 11.0729 17.6604 8.38125 14.3667 8.38125C12.7792 8.38125 11.2568 9.01185 10.1343 10.1343C9.01185 11.2568 8.38125 12.7792 8.38125 14.3667C8.38125 17.6604 11.0729 20.3167 14.3667 20.3167ZM19.2896 55.5208V25.8771H9.47917V55.5208H19.2896Z" fill="white"/>
</svg>
